<!--?xml version="1.0" standalone="no"?--><svg xmlns="http://www.w3.org/2000/svg" width="299.000000pt" height="300.000000pt" viewBox="0 0 299.000000 300.000000" preserveAspectRatio="xMidYMid meet">
<metadata>
  <rdf:rdf xmlns:rdf="http://www.w3.org/1999/02/22-rdf-syntax-ns#" xmlns:rdfs="http://www.w3.org/2000/01/rdf-schema#" xmlns:dc="http://purl.org/dc/elements/1.1/">
    <rdf:description dc:title="world clipart black and white" dc:publisher="Hiox" dc:date="2015-05-27" dc:format="image/svg+xml" dc:language="en">
      <dc:creator>
        <rdf:bag>
          <rdf:li>svgimages.com</rdf:li>
        </rdf:bag>
      </dc:creator>
    </rdf:description>
  </rdf:rdf>
</metadata>
<g transform="translate(0.000000,300.000000) scale(0.100000,-0.100000)" fill="#080808" stroke="none">
<path d="M1290 2980 c-177 -27 -292 -62 -445 -137 -115 -57 -143 -74 -235
-144 -141 -107 -269 -245 -366 -394 -53 -82 -116 -201 -129 -245 -4 -14 -13
-38 -20 -55 -56 -129 -102 -420 -91 -570 12 -156 54 -364 93 -460 91 -225 186
-370 347 -531 246 -246 505 -375 854 -424 173 -25 228 -25 398 0 349 51 604
179 850 424 161 161 256 306 347 531 41 102 96 387 97 507 0 129 -52 429 -91
513 -5 11 -16 40 -24 65 -49 142 -201 367 -339 503 -172 170 -398 308 -593
362 -32 9 -69 20 -83 26 -44 16 -299 49 -373 48 -40 0 -128 -9 -197 -19z
m-280 -150 c0 -5 -15 -17 -32 -26 -18 -9 -45 -27 -59 -38 -25 -21 -34 -22
-133 -17 -13 1 15 31 43 46 14 7 53 16 86 20 33 4 67 11 75 16 19 11 20 11 20
-1z m432 -79 c24 -16 52 -39 62 -50 23 -25 39 -27 56 -6 10 12 10 18 0 30 -7
9 -11 17 -9 20 3 2 36 7 73 11 59 6 71 5 82 -10 11 -16 19 -17 65 -7 41 9 54
9 60 -1 13 -20 -6 -24 -73 -18 -74 8 -94 4 -78 -15 26 -31 179 -46 200 -20 7
8 16 15 21 15 5 0 9 -7 9 -15 0 -8 8 -15 18 -15 17 0 42 -36 42 -60 0 -6 -9
-19 -20 -30 l-21 -21 68 -67 c148 -146 236 -211 269 -198 10 4 62 -15 80 -28
1 -1 5 -16 9 -33 6 -31 5 -33 -21 -33 -14 0 -41 8 -58 18 -17 10 -37 18 -43
16 -7 -1 -19 -2 -27 -3 -31 -2 28 -120 87 -174 35 -31 49 -31 57 4 l6 24 13
-23 c6 -12 16 -20 21 -17 5 3 12 0 15 -5 4 -7 19 -8 37 -5 21 5 35 2 49 -11
24 -22 24 -24 -5 -67 -20 -28 -22 -38 -12 -55 24 -41 51 -78 78 -106 23 -24
29 -26 34 -12 12 30 34 -3 34 -51 0 -24 7 -60 15 -80 14 -34 14 -37 -9 -60
-26 -25 -42 -75 -31 -93 3 -5 15 -10 25 -10 23 0 31 -23 29 -82 -2 -32 4 -54
18 -74 27 -39 36 -80 23 -104 -9 -16 -8 -22 5 -26 8 -3 15 -12 15 -20 0 -8 6
-14 13 -15 30 -2 51 -9 57 -19 5 -9 18 -9 48 0 36 9 43 16 51 48 6 21 17 46
25 57 9 11 16 27 16 36 0 9 7 32 16 50 15 34 15 34 10 -32 -18 -232 -154 -547
-321 -744 -98 -115 -195 -204 -302 -278 -65 -45 -215 -127 -233 -127 -26 0 29
46 96 81 72 37 150 114 161 158 3 14 28 52 55 85 39 47 48 65 46 90 l-3 31
-60 -4 c-33 -2 -65 -7 -71 -12 -7 -5 -46 -12 -89 -15 l-76 -5 -35 36 c-35 37
-35 37 -102 33 -76 -5 -146 18 -155 51 -4 17 -9 18 -48 9 -83 -18 -131 -19
-150 -2 -23 21 -85 26 -100 8 -6 -8 -22 -14 -36 -14 -13 0 -34 -11 -46 -23
-19 -21 -30 -24 -90 -21 -89 3 -101 13 -93 80 7 61 -3 73 -64 81 -22 3 -42 8
-44 12 -2 3 6 26 17 51 20 40 25 45 52 43 17 -2 48 -3 69 -3 65 0 98 -36 73
-77 -7 -11 22 -23 61 -23 23 0 30 14 12 25 -13 8 -13 28 1 23 6 -2 10 -8 10
-13 0 -13 47 -37 59 -30 5 3 18 2 27 -4 13 -6 24 -5 37 4 10 8 35 12 59 10 43
-4 81 10 72 26 -4 5 -17 9 -31 9 -13 0 -24 5 -24 10 0 6 -27 10 -61 10 -54 0
-60 2 -54 17 4 10 8 27 10 38 1 11 6 29 11 40 5 13 -1 10 -18 -10 -24 -26 -29
-28 -47 -17 -25 15 -41 16 -41 2 0 -5 6 -10 14 -10 14 0 31 -29 22 -37 -3 -3
-21 0 -41 7 -35 11 -36 14 -31 45 4 19 2 36 -4 40 -15 9 -12 25 5 25 8 0 15 4
15 9 0 13 -35 20 -51 11 -9 -6 -18 5 -30 41 -10 28 -15 57 -12 64 6 16 98 85
113 85 6 0 10 14 10 32 0 53 31 105 73 124 32 15 37 21 33 40 -8 31 36 63 59
44 22 -18 129 62 120 91 -5 16 -1 19 24 19 16 0 33 -4 36 -10 4 -6 15 -4 29 5
17 12 21 22 18 49 -3 30 -10 37 -38 46 -25 9 -34 17 -34 34 0 33 -35 73 -75
87 -19 7 -35 17 -35 21 0 5 -18 32 -40 61 l-39 53 10 66 10 65 -85 88 c-59 61
-83 92 -79 103 10 26 25 32 41 15 8 -8 26 -13 39 -10 24 5 73 -34 73 -59 0 -7
6 -19 13 -26 7 -7 25 -38 39 -68 35 -73 111 -146 162 -155 51 -9 56 2 39 78
-11 45 -12 67 -4 85 6 12 11 36 11 52 0 16 5 32 10 35 6 3 10 24 10 45 0 31
-6 43 -29 60 -17 11 -33 29 -36 40 -3 10 -31 35 -61 55 -30 20 -61 47 -70 59
-13 21 -21 23 -62 19 -32 -4 -56 -14 -75 -31 -22 -21 -36 -26 -67 -23 -27 2
-56 -6 -90 -23 -40 -20 -67 -26 -116 -26 -52 0 -67 -4 -81 -20 -10 -11 -22
-20 -28 -20 -6 0 -25 -13 -43 -29 -17 -17 -32 -26 -32 -20 0 5 -10 9 -23 9
-46 0 -60 21 -62 95 -1 69 -1 69 -39 88 -30 16 -42 17 -62 9 -37 -17 -29 1 22
47 36 34 48 40 59 31 20 -16 38 -2 31 25 -7 26 20 85 38 85 7 0 24 8 37 19 31
23 79 33 79 15 0 -21 14 -24 56 -12 61 18 68 27 44 53 l-21 22 24 -4 c17 -4
71 6 94 16 1 1 21 -12 45 -28z m-700 -26 c0 -8 1 -21 2 -27 1 -19 35 -41 51
-34 7 2 19 -1 25 -9 9 -10 6 -15 -9 -20 -24 -7 -28 -25 -7 -25 19 0 29 -30 15
-46 -12 -15 -4 -18 34 -15 25 3 21 -12 -12 -42 -21 -19 -28 -32 -24 -47 5 -19
2 -21 -23 -19 -36 4 -54 -6 -54 -31 0 -10 -7 -25 -15 -34 -8 -8 -15 -22 -15
-30 0 -9 -5 -16 -10 -16 -19 0 -60 32 -60 46 0 10 -12 14 -37 14 l-38 0 60
-58 c33 -31 59 -60 57 -64 -4 -15 38 -29 56 -19 12 6 23 5 37 -5 15 -11 19
-27 20 -72 0 -48 -5 -65 -35 -112 -34 -53 -35 -59 -35 -150 0 -88 -2 -99 -30
-143 -66 -107 -76 -135 -80 -210 -2 -44 2 -77 9 -86 16 -20 25 -163 9 -157
-15 6 -1 -33 28 -80 10 -17 16 -34 12 -37 -5 -5 17 -68 33 -95 5 -9 34 13 30
23 -2 7 -2 16 1 19 12 12 51 -88 41 -106 -12 -24 10 -63 64 -114 61 -57 120
-94 149 -94 15 0 37 -12 55 -31 16 -16 49 -39 74 -50 53 -24 79 -46 91 -77 5
-13 18 -26 29 -29 11 -3 20 -8 20 -12 0 -14 86 -45 117 -42 28 2 33 -1 39 -25
6 -24 0 -33 -44 -75 -28 -26 -49 -49 -47 -51 2 -1 0 -22 -4 -45 -7 -37 -6 -43
15 -54 13 -6 48 -40 78 -75 50 -55 62 -64 109 -74 28 -6 59 -15 67 -20 15 -9
15 -10 -35 -102 -18 -33 -71 -41 -197 -30 -431 40 -821 269 -1073 632 -53 75
-136 239 -168 330 -111 317 -113 654 -6 975 35 105 137 297 206 390 85 113
200 228 312 311 89 65 110 75 113 49z m1947 -524 c8 -5 24 -30 37 -57 21 -44
22 -49 8 -77 -15 -28 -16 -28 -35 -11 -14 13 -18 25 -14 45 4 17 -1 39 -14 63
-12 20 -21 39 -21 41 0 8 24 5 39 -4z m-47 -53 c8 -22 -2 -36 -22 -31 -23 6
-25 14 -8 31 15 15 25 15 30 0z m-1172 -58 c0 -5 -4 -10 -10 -10 -5 0 -10 5
-10 10 0 6 5 10 10 10 6 0 10 -4 10 -10z m1179 -40 c13 0 13 1 -3 -73 -10 -52
-14 -57 -25 -43 -12 14 -12 21 -1 40 14 27 5 50 -16 42 -8 -3 -14 1 -14 8 0 7
-7 19 -15 26 -12 10 -13 16 -4 26 9 11 16 10 39 -6 16 -11 33 -20 39 -20z
m-1192 -30 c-12 -10 -25 -16 -29 -13 -12 6 -10 33 2 33 6 0 10 7 10 17 0 15 2
14 20 -2 19 -17 19 -18 -3 -35z m48 -51 c11 -16 1 -20 -36 -12 -33 7 -33 7 -9
14 36 10 38 10 45 -2z m-135 -19 c11 -11 26 -20 33 -20 18 -1 49 -47 36 -55
-5 -4 -8 -19 -4 -33 4 -23 0 -30 -26 -44 -17 -10 -36 -18 -42 -18 -18 0 -87
65 -104 97 -14 27 -13 29 23 61 43 37 57 39 84 12z m250 -34 c0 -2 -6 -16 -14
-31 -14 -27 -14 -27 -26 -6 -6 12 -8 26 -5 31 6 9 45 15 45 6z m-208 -188 c-9
-9 -12 -7 -12 12 0 19 3 21 12 12 9 -9 9 -15 0 -24z m333 -127 c-9 -19 -23
-31 -35 -31 -26 0 -26 30 0 37 11 3 20 11 20 18 0 15 23 26 28 14 2 -4 -4 -21
-13 -38z m-614 -480 c38 -17 46 -18 60 -5 19 17 32 18 62 2 12 -6 29 -14 37
-18 8 -4 16 -16 18 -26 2 -10 10 -36 19 -57 14 -33 15 -40 2 -48 -8 -5 -21 -9
-30 -9 -9 0 -29 -6 -44 -14 -17 -9 -35 -12 -49 -7 -33 13 -88 1 -93 -20 -6
-23 -69 -27 -95 -6 -51 39 -36 195 20 216 39 14 45 13 93 -8z m280 -158 c15
-18 -5 -24 -35 -10 -27 13 -36 37 -12 37 8 0 17 8 22 18 6 14 8 13 12 -8 2
-14 8 -30 13 -37z m319 -902 c0 -11 -50 -21 -104 -21 -34 1 -38 3 -23 11 10 6
24 8 31 6 7 -3 28 -2 47 3 47 11 49 11 49 1z" id="node1" class="node" style="position: relative; display: inline; fill: rgb(255, 255, 255);" fill="#ffffff"></path>
<path d="M1620 2650 c-9 -17 -8 -20 11 -20 11 0 34 -8 50 -17 23 -14 31 -15
41 -4 11 10 8 17 -15 37 -34 29 -72 31 -87 4z" id="node2" class="node" style="position: relative; display: inline; stroke: rgb(255, 255, 255); fill: rgb(255, 255, 255);" stroke="#ffffff" fill="#ffffff"></path>
<path d="M1727 2568 c-2 -7 2 -25 10 -40 11 -22 20 -28 46 -27 40 1 114 27 80
28 -12 1 -27 10 -33 21 -6 11 -20 19 -33 19 -12 0 -32 2 -43 6 -14 4 -23 2
-27 -7z" id="node3" class="node" style="position: relative; fill: rgb(255, 255, 255);" fill="#ffffff"></path>
<path d="M2180 2269 c7 -11 14 -18 17 -15 8 8 -5 36 -17 36 -7 0 -7 -6 0 -21z" id="node4" class="node" style="position: relative; fill: rgb(255, 255, 255);" fill="#ffffff"></path>
<path d="M2122 2249 c1 -13 8 -23 13 -21 15 3 12 35 -3 40 -9 3 -13 -3 -10
-19z" id="node5" class="node" style="position: relative; fill: rgb(255, 255, 255);" fill="#ffffff"></path>
<path d="M1992 2253 c-6 -2 -10 -9 -6 -14 3 -5 1 -9 -3 -9 -5 0 -17 -6 -28
-13 -17 -13 -17 -15 0 -45 20 -32 42 -37 81 -15 25 14 36 57 20 77 -13 16 -46
26 -64 19z" id="node6" class="node" style="position: relative; fill: rgb(255, 255, 255);" fill="#ffffff"></path>
<path d="M1456 1002 c-2 -4 4 -13 15 -20 21 -13 22 -12 13 12 -7 17 -20 21
-28 8z" id="node7" class="node" style="position: relative; fill: rgb(255, 255, 255);" fill="#ffffff"></path>
<path d="M1810 826 c-10 -13 -10 -19 0 -31 11 -13 14 -13 27 1 14 14 14 17 1
30 -13 13 -16 13 -28 0z" id="node8" class="node" style="position: relative; fill: rgb(255, 255, 255);" fill="#ffffff"></path>
<path d="M745 2640 c3 -5 8 -10 11 -10 2 0 4 5 4 10 0 6 -5 10 -11 10 -5 0 -7
-4 -4 -10z" id="node9" class="node" style="position: relative; fill: rgb(255, 255, 255);" fill="#ffffff"></path>
<path d="M664 2589 c-6 -8 -15 -25 -19 -39 l-7 -25 22 21 c12 12 20 30 18 39
-2 15 -5 16 -14 4z" id="node10" class="node" style="position: relative; fill: rgb(255, 255, 255);" fill="#ffffff"></path>
<path d="M603 2483 c-22 -15 -32 -63 -14 -63 9 0 51 61 51 74 0 10 -13 6 -37
-11z" id="node11" class="node" style="position: relative; fill: rgb(255, 255, 255);" fill="#ffffff"></path>
<path d="M119 1793 c-3 -43 -7 -70 -14 -100 -6 -26 -4 -33 8 -33 8 0 17 10 21
23 9 36 7 127 -4 127 -5 0 -11 -8 -11 -17z" id="node12" class="node" style="position: relative; fill: rgb(255, 255, 255);" fill="#ffffff"></path>
<path d="M1062 499 c-12 -18 -12 -23 0 -30 16 -11 20 -11 35 -1 9 5 7 13 -5
30 l-17 22 -13 -21z" id="node13" class="node" style="position: relative; display: inline; fill: rgb(255, 255, 255);" fill="#ffffff"></path>
</g>
<g transform="translate(0.000000,300.000000) scale(0.100000,-0.100000)" fill="#A0A0A0" stroke="none">


<path d="M990 2831 c-8 -5 -42 -12 -75 -16 -33 -4 -72 -13 -86 -20 -28 -15
-56 -45 -43 -46 99 -5 108 -4 133 17 14 11 41 29 59 38 17 9 32 21 32 26 0 12
-1 12 -20 1z" id="node16" class="node" style="position: relative; display: none; fill: rgb(255, 255, 255);" fill="#ffffff"></path>
<path d="M1361 2768 c-19 -5 -46 -8 -58 -5 l-24 4 21 -22 c24 -26 17 -35 -44
-53 -42 -12 -56 -9 -56 12 0 18 -48 8 -79 -15 -13 -11 -30 -19 -37 -19 -18 0
-45 -59 -38 -85 7 -27 -11 -41 -31 -25 -11 9 -23 3 -59 -31 -51 -46 -59 -64
-22 -47 20 8 32 7 62 -9 38 -19 38 -19 39 -88 2 -74 16 -95 62 -95 13 0 23 -4
23 -9 0 -6 15 3 32 20 18 16 37 29 43 29 6 0 18 9 28 20 14 16 29 20 81 20 49
0 76 6 116 26 34 17 63 25 90 23 31 -3 45 2 67 23 19 17 43 27 75 31 41 4 49
2 62 -19 9 -12 40 -39 70 -59 30 -20 58 -45 61 -55 3 -11 19 -29 36 -40 23
-17 29 -29 29 -60 0 -21 -4 -42 -10 -45 -5 -3 -10 -19 -10 -35 0 -16 -5 -40
-11 -52 -8 -18 -7 -40 4 -85 17 -76 12 -87 -39 -78 -51 9 -127 82 -162 155
-14 30 -32 61 -39 68 -7 7 -13 19 -13 26 0 25 -49 64 -73 59 -13 -3 -31 2 -39
10 -16 17 -31 11 -41 -15 -4 -11 20 -42 79 -103 l85 -88 -10 -65 -10 -66 39
-53 c22 -29 40 -56 40 -61 0 -4 16 -14 35 -21 40 -14 75 -54 75 -87 0 -17 9
-25 34 -34 28 -9 35 -16 38 -46 3 -27 -1 -37 -18 -49 -14 -9 -25 -11 -29 -5
-3 6 -20 10 -36 10 -25 0 -29 -3 -24 -19 9 -29 -98 -109 -120 -91 -23 19 -67
-13 -59 -44 4 -19 -1 -25 -33 -40 -42 -19 -73 -71 -73 -124 0 -18 -4 -32 -10
-32 -15 0 -107 -69 -113 -85 -3 -7 2 -36 12 -64 12 -36 21 -47 30 -41 16 9 51
2 51 -11 0 -5 -7 -9 -15 -9 -17 0 -20 -16 -5 -25 6 -4 8 -21 4 -40 -5 -31 -4
-34 31 -45 20 -7 38 -10 41 -7 9 8 -8 37 -22 37 -8 0 -14 5 -14 10 0 14 16 13
41 -2 18 -11 23 -9 47 17 17 20 23 23 18 10 -5 -11 -10 -29 -11 -40 -2 -11 -6
-28 -10 -38 -6 -15 0 -17 54 -17 34 0 61 -4 61 -10 0 -5 11 -10 24 -10 14 0
27 -4 31 -9 9 -16 -29 -30 -72 -26 -24 2 -49 -2 -59 -10 -13 -9 -24 -10 -37
-4 -9 6 -22 7 -27 4 -12 -7 -59 17 -59 30 0 5 -4 11 -10 13 -14 5 -14 -15 -1
-23 18 -11 11 -25 -12 -25 -39 0 -68 12 -61 23 25 41 -8 77 -73 77 -21 0 -52
1 -69 3 -27 2 -32 -3 -52 -43 -11 -25 -19 -48 -17 -51 2 -4 22 -9 44 -12 61
-8 71 -20 64 -81 -8 -67 4 -77 93 -80 60 -3 71 0 90 21 12 12 33 23 46 23 14
0 30 6 36 14 15 18 77 13 100 -8 19 -17 67 -16 150 2 39 9 44 8 48 -9 9 -33
79 -56 155 -51 67 4 67 4 102 -33 l35 -36 76 5 c43 3 82 10 89 15 6 5 38 10
71 12 l60 4 3 -31 c2 -25 -7 -43 -46 -90 -27 -33 -52 -71 -55 -85 -11 -44 -89
-121 -161 -158 -67 -35 -122 -81 -96 -81 18 0 168 82 233 127 107 74 204 163
302 278 167 197 303 512 321 744 5 66 5 66 -10 32 -9 -18 -16 -41 -16 -50 0
-9 -7 -25 -16 -36 -8 -11 -19 -36 -25 -57 -8 -32 -15 -39 -51 -48 -30 -9 -43
-9 -48 0 -6 10 -27 17 -57 19 -7 1 -13 7 -13 15 0 8 -7 17 -15 20 -13 4 -14
10 -5 26 13 24 4 65 -23 104 -14 20 -20 42 -18 74 2 59 -6 82 -29 82 -10 0
-22 5 -25 10 -11 18 5 68 31 93 23 23 23 26 9 60 -8 20 -15 56 -15 80 0 48
-22 81 -34 51 -5 -14 -11 -12 -34 12 -27 28 -54 65 -78 106 -10 17 -8 27 12
55 29 43 29 45 5 67 -14 13 -28 16 -49 11 -18 -3 -33 -2 -37 5 -3 5 -10 8 -15
5 -5 -3 -15 5 -21 17 l-13 23 -6 -24 c-8 -35 -22 -35 -57 -4 -59 54 -118 172
-87 174 8 1 20 2 27 3 6 2 26 -6 43 -16 17 -10 44 -18 58 -18 26 0 27 2 21 33
-4 17 -8 32 -9 33 -18 13 -70 32 -80 28 -33 -13 -121 52 -269 198 l-68 67 21
21 c11 11 20 24 20 30 0 24 -25 60 -42 60 -10 0 -18 7 -18 15 0 8 -4 15 -9 15
-5 0 -14 -7 -21 -15 -21 -26 -174 -11 -200 20 -16 19 4 23 78 15 67 -6 86 -2
73 18 -6 10 -19 10 -60 1 -46 -10 -54 -9 -65 7 -11 15 -23 16 -82 10 -37 -4
-70 -9 -73 -11 -2 -3 2 -11 9 -20 10 -12 10 -18 0 -30 -17 -21 -33 -19 -56 6
-16 18 -102 80 -107 78 -1 0 -18 -5 -36 -11z m346 -122 c23 -20 26 -27 15 -37
-10 -11 -18 -10 -41 4 -16 9 -39 17 -50 17 -19 0 -20 3 -11 20 15 27 53 25 87
-4z m90 -77 c13 0 27 -8 33 -19 6 -11 21 -20 33 -21 34 -1 -40 -27 -80 -28
-26 -1 -35 5 -46 27 -19 35 -11 56 17 47 11 -4 31 -6 43 -6z m400 -294 c9 -25
-4 -29 -17 -6 -7 15 -7 21 0 21 6 0 13 -7 17 -15z m-52 -28 c0 -26 -20 -25
-23 2 -3 16 1 22 10 19 7 -3 13 -12 13 -21z m-89 -13 c16 -20 5 -63 -20 -77
-39 -22 -61 -17 -81 15 -17 30 -17 32 0 45 11 7 23 13 28 13 4 0 6 4 3 9 -16
25 50 20 70 -5z m-572 -1240 c9 -24 8 -25 -13 -12 -11 7 -17 16 -15 20 8 13
21 9 28 -8z m353 -198 c-13 -14 -16 -14 -27 -1 -10 12 -10 18 0 31 12 13 15
13 28 0 13 -13 13 -16 -1 -30z" id="node17" class="node" style="position: relative; display: none;"></path>
<path d="M629 2676 c-339 -251 -554 -633 -591 -1050 -25 -284 27 -549 157
-801 229 -446 666 -741 1163 -787 126 -11 179 -3 197 30 50 92 50 93 35 102
-8 5 -39 14 -67 20 -47 10 -59 19 -109 74 -30 35 -65 69 -78 75 -21 11 -22 17
-15 54 4 23 6 44 4 45 -2 2 19 25 47 51 44 42 50 51 44 75 -6 24 -11 27 -39
25 -31 -3 -117 28 -117 42 0 4 -9 9 -20 12 -11 3 -24 16 -29 29 -12 31 -38 53
-91 77 -25 11 -58 34 -74 50 -18 19 -40 31 -55 31 -29 0 -88 37 -149 94 -54
51 -76 90 -64 114 10 18 -29 118 -41 106 -3 -3 -3 -12 -1 -19 4 -10 -25 -32
-30 -23 -16 27 -38 90 -33 95 4 3 -2 20 -12 37 -29 47 -43 86 -28 80 16 -6 7
137 -9 157 -7 9 -11 42 -9 86 4 75 14 103 80 210 28 44 30 55 30 143 0 91 1
97 35 150 30 47 35 64 35 112 -1 45 -5 61 -20 72 -14 10 -25 11 -37 5 -18 -10
-60 4 -56 19 2 4 -24 33 -57 64 l-60 58 38 0 c25 0 37 -4 37 -14 0 -14 41 -46
60 -46 5 0 10 7 10 16 0 8 7 22 15 30 8 9 15 24 15 34 0 25 18 35 54 31 25 -2
28 0 23 19 -4 15 3 28 24 47 33 30 37 45 12 42 -38 -3 -46 0 -34 15 14 16 4
46 -15 46 -21 0 -17 18 7 25 15 5 18 10 9 20 -6 8 -18 11 -25 9 -16 -7 -50 15
-51 34 -3 37 -5 42 -16 42 -7 0 -52 -29 -99 -64z m131 -36 c0 -5 -2 -10 -4
-10 -3 0 -8 5 -11 10 -3 6 -1 10 4 10 6 0 11 -4 11 -10z m-100 -94 l-22 -21 7
25 c4 14 13 31 19 39 9 12 12 11 14 -4 2 -9 -6 -27 -18 -39z m-20 -52 c0 -13
-42 -74 -51 -74 -18 0 -8 48 14 63 24 17 37 21 37 11z m-500 -736 c0 -68 -9
-98 -27 -98 -12 0 -14 7 -8 33 7 30 11 57 14 100 0 9 6 17 11 17 6 0 10 -24
10 -52z m957 -1290 c-15 -10 -19 -10 -35 1 -12 7 -12 12 0 30 l13 21 17 -22
c12 -17 14 -25 5 -30z" id="node18" class="node" style="position: relative; display: none;"></path>
<path d="M2650 2205 c0 -2 9 -21 21 -41 13 -24 18 -46 14 -63 -4 -20 0 -32 14
-45 19 -17 20 -17 35 11 14 28 13 33 -8 77 -13 27 -29 52 -37 57 -15 9 -39 12
-39 4z" id="node19" class="node" style="position: relative; display: none;"></path>
<path d="M2612 2148 c-17 -17 -15 -25 8 -31 20 -5 30 9 22 31 -5 15 -15 15
-30 0z" id="node20" class="node" style="position: relative; display: none;"></path>
<path d="M1450 2090 c0 -5 5 -10 10 -10 6 0 10 5 10 10 0 6 -4 10 -10 10 -5 0
-10 -4 -10 -10z" id="node21" class="node" style="position: relative; display: none;"></path>
<path d="M2571 2076 c-9 -10 -8 -16 4 -26 8 -7 15 -19 15 -26 0 -7 6 -11 14
-8 21 8 30 -15 16 -42 -11 -19 -11 -26 1 -40 11 -14 15 -9 25 43 16 74 16 73
3 73 -6 0 -23 9 -39 20 -23 16 -30 17 -39 6z" id="node22" class="node" style="position: relative; display: none;"></path>
<path d="M1440 2057 c0 -10 -4 -17 -10 -17 -12 0 -14 -27 -2 -33 4 -3 17 3 29
13 22 17 22 18 3 35 -18 16 -20 17 -20 2z" id="node23" class="node" style="position: relative; display: none;"></path>
<path d="M1460 1971 c-24 -7 -24 -7 9 -14 37 -8 47 -4 36 12 -7 12 -9 12 -45
2z" id="node24" class="node" style="position: relative; display: none;"></path>
<path d="M1286 1938 c-36 -32 -37 -34 -23 -61 17 -32 86 -97 104 -97 6 0 25 8
42 18 26 14 30 21 26 44 -4 14 -1 29 4 33 13 8 -18 54 -36 55 -7 0 -22 9 -33
20 -27 27 -41 25 -84 -12z" id="node25" class="node" style="position: relative; display: none;"></path>
<path d="M1575 1910 c-3 -5 -1 -19 5 -31 12 -21 12 -21 26 6 8 15 14 29 14 31
0 9 -39 3 -45 -6z" id="node26" class="node" style="position: relative; display: none;"></path>
<path d="M1400 1740 c0 -19 3 -21 12 -12 9 9 9 15 0 24 -9 9 -12 7 -12 -12z" id="node27" class="node" style="position: relative; display: none;"></path>
<path d="M1743 1643 c-7 -3 -13 -11 -13 -18 0 -7 -9 -15 -20 -18 -26 -7 -26
-37 0 -37 12 0 26 12 35 31 18 33 17 48 -2 42z" id="node28" class="node" style="position: relative; display: none;"></path>


<path d="M1038 1129 c-56 -21 -71 -177 -20 -216 26 -21 89 -17 95 6 5 21 60
33 93 20 14 -5 32 -2 49 7 15 8 35 14 44 14 9 0 22 4 30 9 13 8 12 15 -2 48
-9 21 -17 47 -19 57 -2 10 -10 22 -18 26 -8 4 -25 12 -37 18 -30 16 -43 15
-62 -2 -14 -13 -22 -12 -60 5 -48 21 -54 22 -93 8z" id="node31" class="node" style="position: relative; display: none;"></path>
<path d="M1386 1008 c-5 -10 -14 -18 -22 -18 -24 0 -15 -24 12 -37 30 -14 50
-8 35 10 -5 7 -11 23 -13 37 -4 21 -6 22 -12 8z" id="node32" class="node" style="position: relative; display: none;"></path>
<path d="M1681 60 c-19 -5 -40 -6 -47 -3 -7 2 -21 0 -31 -6 -15 -8 -11 -10 23
-11 54 0 104 10 104 21 0 10 -2 10 -49 -1z" id="node33" class="node" style="position: relative; display: none;"></path>
</g>
</svg>